<svg xmlns="http://www.w3.org/2000/svg" viewBox="0 0 1600 900" preserveAspectRatio="xMidYMid slice">
  <defs>
    <linearGradient id="sunset" x1="0" x2="0" y1="0" y2="1">
      <stop offset="0" stop-color="#1677d2"/>
      <stop offset="0.42" stop-color="#ff9c5a"/>
      <stop offset="0.72" stop-color="#ffd37a"/>
      <stop offset="1" stop-color="#b9f0ff"/>
    </linearGradient>
    <radialGradient id="glow" cx="0.5" cy="0.62" r="0.36">
      <stop offset="0" stop-color="#fff7b3" stop-opacity="0.88"/>
      <stop offset="0.45" stop-color="#ffce6a" stop-opacity="0.45"/>
      <stop offset="1" stop-color="#ffce6a" stop-opacity="0"/>
    </radialGradient>
    <filter id="blur" x="-20%" y="-20%" width="140%" height="140%">
      <feGaussianBlur stdDeviation="9"/>
    </filter>
  </defs>
  <rect width="1600" height="900" fill="url(#sunset)"/>
  <rect width="1600" height="900" fill="url(#glow)"/>
  <g fill="#fff" opacity="0.55" filter="url(#blur)">
    <ellipse cx="265" cy="175" rx="190" ry="54"/>
    <ellipse cx="415" cy="190" rx="110" ry="34"/>
    <ellipse cx="1160" cy="178" rx="220" ry="62"/>
    <ellipse cx="1320" cy="197" rx="130" ry="40"/>
  </g>
  <path d="M0 695c180-82 335-92 500-24 200 82 410 78 622 5 188-65 345-48 478 20v204H0Z" fill="#355b79" opacity="0.42"/>
  <path d="M0 780c230-50 420-43 600 10 212 62 455 52 675-12 118-34 225-30 325 4v118H0Z" fill="#1f4664" opacity="0.38"/>
</svg>
